<svg width="352" height="454" viewBox="0 0 352 454" fill="none" xmlns="http://www.w3.org/2000/svg">
<path fill-rule="evenodd" clip-rule="evenodd" d="M173.5 0.462989C171.191 0.935489 175.161 -1.29451 121 29.953C88.259 48.8425 72.7655 58.0475 71.708 59.238C70.86 60.1935 69.9035 61.8505 69.583 62.9205C69.154 64.3525 69 79.901 69 121.844C69 185.222 68.8085 181.647 72.3935 185.145C75.1535 187.837 171.378 243.273 174.026 243.696C176.534 244.098 179.142 243.671 181.539 242.467C182.522 241.973 201.422 231.122 223.539 218.353C245.655 205.585 265.692 194.089 268.067 192.805C275.747 188.655 280.052 185.489 281.339 183.047L282.5 180.843V155.272C282.5 136.049 282.351 129.551 281.9 129.1C281.57 128.77 280.757 128.5 280.094 128.5C278.857 128.5 264.648 136.366 262.625 138.171C261.509 139.166 261.5 139.288 261.495 153.212C261.49 166.927 261.463 167.308 260.309 169.75C259.659 171.125 258.479 172.842 257.688 173.564C256.238 174.89 182.589 217.604 180.093 218.568C177.604 219.529 173.373 219.206 170.707 217.852C164.559 214.728 95.091 174.297 93.812 173.098C93.021 172.356 91.957 170.85 91.448 169.75C90.568 167.849 90.522 165.481 90.525 122L90.528 76.25L91.659 74.039C92.281 72.823 93.5685 71.2015 94.52 70.436C96.3325 68.9775 167.779 27.5525 171.25 25.947C173.638 24.8425 177.869 24.723 180.194 25.694C182.712 26.7465 254.993 68.389 257 69.9445C257.962 70.69 259.368 72.5105 260.125 73.9895L261.5 76.6795V96.5895C261.5 122.514 260.511 121.215 274.199 113.272L282.25 108.599L282.393 86.4245C282.472 74.2285 282.402 63.499 282.237 62.581C281.791 60.093 278.503 57.173 272.245 53.707C269.223 52.033 247.85 39.747 224.75 26.404C201.65 13.0605 182.075 1.80298 181.25 1.38698C179.347 0.426485 175.763 -0.000511471 173.5 0.462989ZM172.01 43.558C171.328 43.8305 157.876 51.4925 142.117 60.585C111.958 77.9865 112 77.958 112 81.4515C112 83.8265 112.982 85.387 115.455 86.94C119.992 89.7895 170.286 118.667 171.859 119.326C173.924 120.191 178.076 120.191 180.141 119.327C181.026 118.956 191.351 113.106 203.086 106.327C214.82 99.547 224.553 94 224.715 94C224.876 94 224.95 106.627 224.879 122.059L224.75 150.117L203.25 162.63C190.586 170 180.654 175.461 179.082 175.916C174.387 177.275 173.285 176.81 151.457 164.227C140.618 157.978 130.995 152.304 130.072 151.617C127.078 149.389 127 148.838 127 129.844C127 114.104 126.926 112.589 126.125 111.875C124.914 110.796 109.464 102 108.779 102C108.473 102 107.723 102.351 107.112 102.779L106 103.556V132.5V161.444L107.125 162.715C108.082 163.796 163.739 196.31 170.608 199.802C173.797 201.422 177.835 201.424 181.25 199.806C186.6 197.272 243.814 163.924 244.875 162.72L246 161.444V122.448C246 89.0565 245.894 83.2455 245.263 82.0245C244.724 80.982 241.998 79.139 235.138 75.177C229.975 72.1955 225.249 69.787 224.636 69.8245C224.023 69.862 215.361 74.6085 205.386 80.3725C178.494 95.9115 179.894 95.206 175.965 95.206C172.841 95.206 172.327 95.0305 167.445 92.294C157.025 86.454 152.958 83.902 152.18 82.7135C150.68 80.424 152.102 79.305 167.445 70.706C172.328 67.969 172.839 67.7945 175.945 67.802C178.856 67.8085 179.723 68.0595 183.217 69.909C185.909 71.334 187.516 71.905 188.217 71.686C188.785 71.5085 192.819 69.313 197.18 66.8065C205.32 62.1285 206.583 60.9645 205.69 58.962C205.417 58.35 201.284 55.626 195.737 52.4025C180.294 43.4275 179.388 42.995 176.101 43.0315C174.533 43.049 172.692 43.286 172.01 43.558ZM36.5 308.25V314.5H48.5H60.5V338.75V363H66.75H73V338.759V314.518L85.125 314.384L97.25 314.25L97.3905 308.125L97.531 302H67.0155H36.5V308.25ZM117.091 302.951C113.828 304.078 111.403 306.349 110.013 309.581C108.989 311.963 108.963 312.612 109.104 333.14C109.246 353.674 109.28 354.305 110.329 356.25C111.592 358.59 113.55 360.514 116 361.818C117.633 362.688 119.502 362.76 143.891 362.892L170.031 363.034L169.891 356.892L169.75 350.75L145.359 350.62L120.969 350.491L121.109 344.62L121.25 338.75L145.625 338.62L170 338.491V332.5V326.51L145.625 326.38L121.25 326.25L121.109 320.38L120.969 314.51L145.359 314.38L169.75 314.25L169.891 308.125L170.031 302L144.891 302.017C121.82 302.032 119.531 302.109 117.091 302.951ZM189.591 302.951C186.328 304.078 183.903 306.349 182.513 309.581C181.489 311.963 181.463 312.612 181.604 333.14C181.746 353.674 181.78 354.305 182.829 356.25C184.092 358.59 186.05 360.514 188.5 361.818C190.133 362.688 192.002 362.76 216.391 362.892L242.531 363.034L242.391 356.892L242.25 350.75L217.875 350.62L193.5 350.491V332.495V314.5H218H242.5V308.25V302L217.375 302.017C194.319 302.032 192.031 302.109 189.591 302.951ZM254 332.5V363H259.991H265.982L266.116 350.875L266.25 338.75L284.375 338.619L302.5 338.488V350.744V363H308.75H315V332.5V302H308.75H302.5V314.256V326.513L284.375 326.381L266.25 326.25L266.116 314.125L265.982 302H259.991H254V332.5ZM8.59801 393.449C5.32651 394.579 3.2335 396.488 1.6915 399.75C0.597998 402.063 0.509505 402.869 0.505005 410.536C0.499505 420.069 1.016 422.334 3.8665 425.269C7.486 428.996 7.3585 428.977 29.375 428.989L49 429V435V441H24.75H0.5V447.25V453.5H25.4205C52.346 453.5 53.196 453.427 56.6185 450.817C57.5645 450.095 58.994 448.322 59.7945 446.877L61.25 444.25L61.2465 435.25C61.243 425.349 60.9965 424.24 58.0595 420.894C54.8565 417.247 55.0695 417.279 32.75 417L12.75 416.75L12.609 410.88L12.4685 405.01L36.859 404.88L61.25 404.75L61.3905 398.625L61.531 392.5L36.3905 392.517C13.343 392.532 11.029 392.609 8.59801 393.449ZM73 398.75V405H85H97V429.25V453.5H103.25H109.5V429.259V405.018L121.625 404.884L133.75 404.75L133.891 398.625L134.031 392.5H103.516H73V398.75ZM153.591 393.451C150.328 394.578 147.903 396.849 146.513 400.081C145.489 402.463 145.463 403.112 145.604 423.64C145.746 444.174 145.78 444.805 146.829 446.75C148.092 449.09 150.05 451.014 152.5 452.318C154.107 453.174 155.878 453.263 174.25 453.412C187.656 453.52 195.092 453.39 196.803 453.017C200.196 452.278 202.989 450.137 204.782 446.901L206.25 444.25V423V401.75L204.794 399.123C203.994 397.678 202.564 395.905 201.618 395.184C198.281 392.638 196.931 392.499 175.796 392.517C158.155 392.531 155.991 392.622 153.591 393.451ZM218 423V453.5H223.991H229.982L230.116 441.375L230.25 429.25L233.702 429.101L237.154 428.951L249.339 441.101L261.525 453.25L270.278 453.408L279.031 453.565L278.891 447.408L278.75 441.25L272.728 441.111L266.706 440.971L260.736 434.986L254.766 429L262.008 428.995C268.538 428.991 269.496 428.876 271.754 427.825C274.663 426.47 277.109 423.893 278.072 421.168C278.544 419.834 278.75 416.588 278.75 410.5C278.75 401.772 278.746 401.744 277.294 399.123C276.494 397.678 275.065 395.905 274.119 395.184C270.696 392.573 269.846 392.5 242.921 392.5H218V423ZM298.091 393.451C294.828 394.578 292.403 396.849 291.013 400.081C289.989 402.463 289.963 403.112 290.104 423.64C290.246 444.174 290.279 444.805 291.329 446.75C292.592 449.09 294.55 451.014 297 452.318C298.633 453.188 300.502 453.26 324.891 453.392L351.031 453.534L350.891 447.392L350.75 441.25L326.359 441.12L301.969 440.991L302.109 435.12L302.25 429.25L326.625 429.12L351 428.991V423V417.01L326.625 416.88L302.25 416.75L302.109 410.88L301.969 405.01L326.359 404.88L350.75 404.75L350.891 398.625L351.031 392.5L325.891 392.517C302.82 392.532 300.531 392.609 298.091 393.451ZM194 423V441H175.75H157.5V423V405H175.75H194V423ZM266.5 411.006V417.013L248.375 416.881L230.25 416.75L230.109 410.875L229.969 405H248.234H266.5V411.006Z" fill="#463F56"/>
</svg>
